SP02DB_Demarrage_Synchrone_04.mot
version=1
nRows=54
nColumns=19
inDegrees=yes
endheader
time	rhf_vx	rhf_vy	rhf_vz	rhf_px	rhf_py	rhf_pz	rhtorque_x	rhtorque_y	rhtorque_z	lhf_vx	lhf_vy	lhf_vz	lhf_px	lhf_py	lhf_pz	lhtorque_x	lhtorque_y	lhtorque_z
0.8700	-19.170197	42.777270	-19.361054	-0.000000	-0.000000	-0.000000	-15.837697	-2.544032	12.060795	-31.425272	46.645459	12.365132	-0.000000	-0.000000	-0.000000	17.762057	7.733287	13.493008	
0.8800	-18.551946	42.791333	-18.571831	-0.000000	-0.000000	-0.000000	-15.636089	-2.385646	11.915437	-31.020997	46.560011	12.145492	-0.000000	-0.000000	-0.000000	17.702812	7.508950	13.424873	
0.8900	-17.941639	42.718576	-17.769075	-0.000000	-0.000000	-0.000000	-15.402514	-2.238389	11.756939	-30.657522	46.342779	11.878980	-0.000000	-0.000000	-0.000000	17.592368	7.295556	13.348724	
0.9000	-17.352212	42.552490	-16.944125	-0.000000	-0.000000	-0.000000	-15.140581	-2.108395	11.587590	-30.300365	45.938267	11.623571	-0.000000	-0.000000	-0.000000	17.417473	7.081791	13.251317	
0.9100	-16.767859	42.302954	-16.119013	-0.000000	-0.000000	-0.000000	-14.857078	-1.982596	11.413680	-30.037531	45.346784	11.391303	-0.000000	-0.000000	-0.000000	17.187820	6.894383	13.134165	
0.9200	-16.201693	41.949316	-15.336369	-0.000000	-0.000000	-0.000000	-14.554539	-1.860416	11.226775	-29.815587	44.656382	11.112382	-0.000000	-0.000000	-0.000000	16.917512	6.724285	13.003819	
0.9300	-15.668903	41.474520	-14.616110	-0.000000	-0.000000	-0.000000	-14.233083	-1.745663	11.035019	-29.610207	43.895723	10.834650	-0.000000	-0.000000	-0.000000	16.611467	6.562159	12.871913	
0.9400	-15.167591	40.861861	-13.953433	-0.000000	-0.000000	-0.000000	-13.886188	-1.636028	10.845705	-29.374319	43.035591	10.585345	-0.000000	-0.000000	-0.000000	16.272843	6.394180	12.750103	
0.9500	-14.676449	40.136722	-13.379794	-0.000000	-0.000000	-0.000000	-13.522105	-1.519412	10.654293	-29.158110	42.089810	10.438649	-0.000000	-0.000000	-0.000000	15.906670	6.244391	12.624471	
0.9600	-14.206746	39.308882	-12.899001	-0.000000	-0.000000	-0.000000	-13.143301	-1.403019	10.452087	-28.892669	41.142445	10.281949	-0.000000	-0.000000	-0.000000	15.519458	6.086267	12.502132	
0.9700	-13.751199	38.392201	-12.480646	-0.000000	-0.000000	-0.000000	-12.751850	-1.286344	10.244397	-28.587519	40.224962	10.185409	-0.000000	-0.000000	-0.000000	15.126884	5.918066	12.373883	
0.9800	-13.299267	37.407066	-12.118886	-0.000000	-0.000000	-0.000000	-12.349783	-1.169521	10.029234	-28.218272	39.337152	10.104552	-0.000000	-0.000000	-0.000000	14.731263	5.748440	12.219376	
0.9900	-12.857132	36.393772	-11.817084	-0.000000	-0.000000	-0.000000	-11.950382	-1.057054	9.801190	-27.734259	38.529134	9.980419	-0.000000	-0.000000	-0.000000	14.347064	5.563381	12.031913	
1.0000	-12.437730	35.330685	-11.520494	-0.000000	-0.000000	-0.000000	-11.537939	-0.961185	9.561169	-27.087410	37.800902	9.772748	-0.000000	-0.000000	-0.000000	13.960341	5.350222	11.814216	
1.0100	-12.009414	34.229982	-11.191813	-0.000000	-0.000000	-0.000000	-11.112184	-0.877664	9.316090	-26.285722	37.094686	9.523845	-0.000000	-0.000000	-0.000000	13.570720	5.113307	11.562237	
1.0200	-11.555674	33.105365	-10.819569	-0.000000	-0.000000	-0.000000	-10.672436	-0.804042	9.053508	-25.297576	36.304192	9.174452	-0.000000	-0.000000	-0.000000	13.140402	4.845949	11.270477	
1.0300	-11.044966	31.979304	-10.379789	-0.000000	-0.000000	-0.000000	-10.228796	-0.732935	8.762797	-24.141620	35.475320	8.768893	-0.000000	-0.000000	-0.000000	12.685371	4.552958	10.926683	
1.0400	-10.499757	30.811619	-9.842100	-0.000000	-0.000000	-0.000000	-9.767259	-0.675450	8.441316	-22.881683	34.525798	8.249996	-0.000000	-0.000000	-0.000000	12.179066	4.254698	10.513010	
1.0500	-9.904623	29.575958	-9.226385	-0.000000	-0.000000	-0.000000	-9.287364	-0.624352	8.077114	-21.519494	33.415183	7.686904	-0.000000	-0.000000	-0.000000	11.626669	3.934379	10.037227	
1.0600	-9.266165	28.285778	-8.557944	-0.000000	-0.000000	-0.000000	-8.791949	-0.577028	7.661569	-20.026916	32.044786	7.040146	-0.000000	-0.000000	-0.000000	10.997707	3.600601	9.472014	
1.0700	-8.571850	26.932271	-7.854634	-0.000000	-0.000000	-0.000000	-8.282392	-0.526133	7.192587	-18.483353	30.395115	6.405948	-0.000000	-0.000000	-0.000000	10.297809	3.270421	8.833843	
1.0800	-7.830067	25.425096	-7.120568	-0.000000	-0.000000	-0.000000	-7.731502	-0.470108	6.671400	-16.922501	28.383060	5.801121	-0.000000	-0.000000	-0.000000	9.506943	2.941742	8.127548	
1.0900	-6.984311	23.785860	-6.348662	-0.000000	-0.000000	-0.000000	-7.152671	-0.387985	6.097055	-15.340874	25.978107	5.272234	-0.000000	-0.000000	-0.000000	8.622831	2.613074	7.363598	
1.1000	-6.071113	22.026696	-5.594302	-0.000000	-0.000000	-0.000000	-6.547026	-0.281002	5.473304	-13.751662	23.218657	4.755682	-0.000000	-0.000000	-0.000000	7.651813	2.297077	6.533263	
1.1100	-5.090313	20.173661	-4.853881	-0.000000	-0.000000	-0.000000	-5.930515	-0.150245	4.817523	-12.170286	20.256620	4.318018	-0.000000	-0.000000	-0.000000	6.644736	1.990171	5.669312	
1.1200	-4.092042	18.236895	-4.164373	-0.000000	-0.000000	-0.000000	-5.295256	-0.011583	4.141173	-10.656186	17.105720	3.902397	-0.000000	-0.000000	-0.000000	5.607075	1.701542	4.794162	
1.1300	-3.059312	16.311998	-3.541859	-0.000000	-0.000000	-0.000000	-4.671384	0.139224	3.465728	-9.151434	13.947943	3.522020	-0.000000	-0.000000	-0.000000	4.583612	1.417784	3.955391	
1.1400	-2.110122	14.468965	-2.958434	-0.000000	-0.000000	-0.000000	-4.073642	0.276347	2.831497	-7.704421	10.929896	3.138876	-0.000000	-0.000000	-0.000000	3.608689	1.157712	3.154255	
1.1500	-1.203641	12.766248	-2.438537	-0.000000	-0.000000	-0.000000	-3.524694	0.404241	2.255027	-6.351783	8.164105	2.864084	-0.000000	-0.000000	-0.000000	2.711871	0.911481	2.430873	
1.1600	-0.354473	11.225398	-1.967477	-0.000000	-0.000000	-0.000000	-3.020819	0.514361	1.743315	-5.134921	5.741372	2.575895	-0.000000	-0.000000	-0.000000	1.919099	0.683858	1.806665	
1.1700	0.436065	9.911812	-1.503403	-0.000000	-0.000000	-0.000000	-2.591073	0.607151	1.314497	-4.014177	3.766753	2.311862	-0.000000	-0.000000	-0.000000	1.252259	0.485874	1.274490	
1.1800	1.089645	8.816479	-1.084913	-0.000000	-0.000000	-0.000000	-2.231489	0.666107	0.971388	-3.064028	2.299447	2.021624	-0.000000	-0.000000	-0.000000	0.737286	0.321251	0.833851	
1.1900	1.694012	7.936928	-0.740529	-0.000000	-0.000000	-0.000000	-1.946666	0.704705	0.694734	-2.283944	1.293523	1.768528	-0.000000	-0.000000	-0.000000	0.363490	0.185702	0.507282	
1.2000	2.183855	7.239218	-0.449307	-0.000000	-0.000000	-0.000000	-1.716124	0.715346	0.490733	-1.752843	0.683430	1.512651	-0.000000	-0.000000	-0.000000	0.121688	0.101759	0.276789	
1.2100	2.553289	6.685785	-0.193988	-0.000000	-0.000000	-0.000000	-1.543282	0.705834	0.357844	-1.360040	0.447336	1.358309	-0.000000	-0.000000	-0.000000	-0.016686	0.057822	0.107773	
1.2200	2.789838	6.207225	0.015139	-0.000000	-0.000000	-0.000000	-1.402371	0.678990	0.276320	-1.158523	0.496640	1.236696	-0.000000	-0.000000	-0.000000	-0.068707	0.045000	-0.005477	
1.2300	3.003396	5.810054	0.167897	-0.000000	-0.000000	-0.000000	-1.297727	0.650199	0.224053	-1.112350	0.622883	1.163660	-0.000000	-0.000000	-0.000000	-0.088577	0.067363	-0.071385	
1.2400	3.151804	5.414200	0.274549	-0.000000	-0.000000	-0.000000	-1.196752	0.621988	0.190192	-1.232324	0.837761	1.102695	-0.000000	-0.000000	-0.000000	-0.073664	0.131891	-0.114462	
1.2500	3.253312	4.983232	0.352097	-0.000000	-0.000000	-0.000000	-1.096329	0.596042	0.174281	-1.418113	1.113750	1.077974	-0.000000	-0.000000	-0.000000	-0.036359	0.218725	-0.133329	
1.2600	3.299735	4.522253	0.368426	-0.000000	-0.000000	-0.000000	-0.987673	0.568531	0.154036	-1.682783	1.368845	1.061537	-0.000000	-0.000000	-0.000000	0.014711	0.318358	-0.118437	
1.2700	3.351197	4.081230	0.331464	-0.000000	-0.000000	-0.000000	-0.889152	0.547894	0.133070	-1.969880	1.574325	1.064680	-0.000000	-0.000000	-0.000000	0.070407	0.419839	-0.084243	
1.2800	3.328198	3.599565	0.308117	-0.000000	-0.000000	-0.000000	-0.776667	0.528236	0.121054	-2.235405	1.773466	1.144836	-0.000000	-0.000000	-0.000000	0.127520	0.518327	-0.050747	
1.2900	3.297415	3.112567	0.276302	-0.000000	-0.000000	-0.000000	-0.664398	0.514669	0.108356	-2.358771	1.979045	1.248255	-0.000000	-0.000000	-0.000000	0.190551	0.582389	-0.005914	
1.3000	3.268822	2.667101	0.244843	-0.000000	-0.000000	-0.000000	-0.566976	0.505932	0.087803	-2.392024	2.135059	1.328175	-0.000000	-0.000000	-0.000000	0.253987	0.624888	0.030523	
1.3100	3.272208	2.266415	0.208203	-0.000000	-0.000000	-0.000000	-0.482090	0.506490	0.069524	-2.367682	2.222690	1.413378	-0.000000	-0.000000	-0.000000	0.302036	0.651106	0.051324	
1.3200	3.274083	1.825843	0.179521	-0.000000	-0.000000	-0.000000	-0.383943	0.517279	0.042978	-2.270609	2.368966	1.509485	-0.000000	-0.000000	-0.000000	0.363557	0.663554	0.074103	
1.3300	3.266106	1.387943	0.156375	-0.000000	-0.000000	-0.000000	-0.287619	0.523932	0.009731	-2.067672	2.529021	1.554849	-0.000000	-0.000000	-0.000000	0.430537	0.652069	0.095357	
1.3400	3.210289	0.964278	0.177126	-0.000000	-0.000000	-0.000000	-0.201239	0.520244	-0.022023	-1.811975	2.578583	1.617381	-0.000000	-0.000000	-0.000000	0.456969	0.631631	0.094258	
1.3500	3.134956	0.527014	0.238324	-0.000000	-0.000000	-0.000000	-0.106824	0.519226	-0.043732	-1.519909	2.567670	1.677114	-0.000000	-0.000000	-0.000000	0.454112	0.594354	0.082107	
1.3600	2.988304	0.041685	0.355674	-0.000000	-0.000000	-0.000000	-0.002342	0.508966	-0.065323	-1.148599	2.535707	1.768458	-0.000000	-0.000000	-0.000000	0.428301	0.536845	0.067399	
1.3700	2.770310	-0.413137	0.474695	-0.000000	-0.000000	-0.000000	0.096704	0.483386	-0.072475	-0.739059	2.396843	1.820008	-0.000000	-0.000000	-0.000000	0.363958	0.461688	0.046783	
1.3800	2.487950	-0.841453	0.622204	-0.000000	-0.000000	-0.000000	0.183952	0.448553	-0.068618	-0.410541	2.134044	1.862961	-0.000000	-0.000000	-0.000000	0.254952	0.402840	0.023141	
1.3900	2.172488	-1.252572	0.741927	-0.000000	-0.000000	-0.000000	0.285171	0.416888	-0.055847	-0.184163	1.888971	1.899710	-0.000000	-0.000000	-0.000000	0.147733	0.360195	0.027267	
1.4000	1.789944	-1.632113	0.851759	-0.000000	-0.000000	-0.000000	0.381136	0.370417	-0.041077	0.057457	1.658278	1.970693	-0.000000	-0.000000	-0.000000	0.045737	0.326810	0.068398	
